# xmcd
#
# Track frame offsets: 
#        150
#        18852
#        40457
#
# Disc length: 550 seconds
#
# Revision: 2
# Processed by: cddbd v1.5.2PL0 Copyright (c) Steve Scherf et al.
# Submitted via: ExactAudioCopy v0.99pb4
#
DISCID=1b022403
DTITLE=Boz Skaggs - It All Went Down the Drain
DYEAR=1997
DGENRE=Jazz
TTITLE0=Edit
TTITLE1=Full Length Version
TTITLE2=Call Out Research Hook
EXTD=
EXTT0=The Radio Edit for this Single\n
EXTT1=The Full Length Version\n
EXTT2=Also known as the teaser\n
PLAYORDER=
